<svg width="25" height="32" viewBox="0 0 25 32" fill="none" xmlns="http://www.w3.org/2000/svg">
<path d="M4.74389 32H20.2561C23.3847 32 25 30.3313 25 27.1417V13.9252H14.0861C12.2672 13.9252 11.3941 13.0392 11.3941 11.1934V0H4.74389C1.6298 0 0 1.66867 0 4.8731V27.1417C0 30.3313 1.6298 32 4.74389 32ZM14.3626 11.7693H24.8545C24.7672 11.09 24.287 10.455 23.5303 9.67236L15.5704 1.49146C14.8428 0.738348 14.188 0.236271 13.5186 0.14767V10.9128C13.5332 11.4887 13.8097 11.7693 14.3626 11.7693ZM12.5 16.7162C13.1694 16.7162 13.7224 17.233 13.7224 17.9123V22.7854L13.6205 24.9857L14.7119 23.8339L15.9051 22.6082C16.1234 22.3867 16.4144 22.2243 16.72 22.2243C17.3603 22.2243 17.8405 22.682 17.8405 23.317C17.8405 23.6567 17.695 23.9372 17.4476 24.1587L13.4459 27.9096C13.1112 28.2049 12.8492 28.3378 12.5 28.3378C12.1653 28.3378 11.8888 28.2049 11.5687 27.9096L7.55239 24.1587C7.30501 23.9372 7.15949 23.6567 7.15949 23.317C7.15949 22.682 7.6397 22.2243 8.27998 22.2243C8.57101 22.2243 8.8766 22.3867 9.09488 22.6082L10.2881 23.8339L11.3941 24.9857L11.2776 22.7854V17.9123C11.2776 17.233 11.8306 16.7162 12.5 16.7162Z" fill="white"/>
</svg>
