<svg width="31" height="29" viewBox="0 0 31 29" fill="none" xmlns="http://www.w3.org/2000/svg">
<path fill-rule="evenodd" clip-rule="evenodd" d="M15.5 0C7.2125 0 0.5 6.65288 0.5 14.8668C0.5 21.4453 4.79375 27.0018 10.7562 28.9716C11.5062 29.1017 11.7875 28.6557 11.7875 28.2654C11.7875 27.9123 11.7688 26.7416 11.7688 25.4965C8 26.1841 7.025 24.5859 6.725 23.7496C6.55625 23.3222 5.825 22.0028 5.1875 21.6497C4.6625 21.371 3.9125 20.6834 5.16875 20.6648C6.35 20.6462 7.19375 21.7426 7.475 22.1886C8.825 24.4372 10.9813 23.8054 11.8438 23.4151C11.975 22.4488 12.3687 21.7984 12.8 21.4267C9.4625 21.055 5.975 19.7728 5.975 14.0863C5.975 12.4695 6.55625 11.1315 7.5125 10.0908C7.3625 9.71914 6.8375 8.1953 7.6625 6.15112C7.6625 6.15112 8.91875 5.76087 11.7875 7.67497C12.9875 7.34046 14.2625 7.17321 15.5375 7.17321C16.8125 7.17321 18.0875 7.34046 19.2875 7.67497C22.1563 5.74229 23.4125 6.15112 23.4125 6.15112C24.2375 8.1953 23.7125 9.71914 23.5625 10.0908C24.5188 11.1315 25.1 12.4509 25.1 14.0863C25.1 19.7914 21.5938 21.055 18.2563 21.4267C18.8 21.8913 19.2688 22.7833 19.2688 24.1771C19.2688 26.1655 19.25 27.7637 19.25 28.2654C19.25 28.6557 19.5313 29.1203 20.2813 28.9716C26.2063 27.0018 30.5 21.4267 30.5 14.8668C30.5 6.65288 23.7875 0 15.5 0Z" fill="white"/>
</svg>
