<svg width="31" height="30" viewBox="0 0 31 30" fill="none" xmlns="http://www.w3.org/2000/svg">
<path fill-rule="evenodd" clip-rule="evenodd" d="M27.1667 30H3.83333C1.99238 30 0.5 28.5076 0.5 26.6667V3.33333C0.5 1.49238 1.99238 0 3.83333 0H27.1667C29.0076 0 30.5 1.49238 30.5 3.33333V26.6667C30.5 28.5076 29.0076 30 27.1667 30ZM21.8816 25.8334H26.3334V16.6881C26.3334 12.8186 24.1399 10.9477 21.0761 10.9477C18.0109 10.9477 16.7209 13.3346 16.7209 13.3346V11.389H12.4306V25.8334H16.7209V18.251C16.7209 16.2193 17.6562 15.0103 19.4462 15.0103C21.0917 15.0103 21.8816 16.1721 21.8816 18.251V25.8334ZM4.66675 6.83217C4.66675 8.30411 5.85094 9.49759 7.31231 9.49759C8.77368 9.49759 9.95717 8.30411 9.95717 6.83217C9.95717 5.36023 8.77368 4.16675 7.31231 4.16675C5.85094 4.16675 4.66675 5.36023 4.66675 6.83217ZM9.57067 25.8334H5.09698V11.389H9.57067V25.8334Z" fill="white"/>
</svg>
