<svg width="40" height="25" viewBox="0 0 40 25" fill="none" xmlns="http://www.w3.org/2000/svg">
<path fill-rule="evenodd" clip-rule="evenodd" d="M5.307 0.296324C2.53517 0.296324 0.288163 2.60697 0.288163 5.4573V19.5427C0.288163 22.393 2.53517 24.7037 5.307 24.7037H34.693C37.4648 24.7037 39.7118 22.393 39.7118 19.5427V5.4573C39.7118 2.60697 37.4648 0.296324 34.693 0.296324H5.307ZM0 5.4573C0 2.44332 2.37602 0 5.307 0H34.693C37.624 0 40 2.44332 40 5.4573V19.5427C40 22.5567 37.624 25 34.693 25H5.307C2.37602 25 0 22.5567 0 19.5427V5.4573Z" fill="#1F1E1C" fill-opacity="0.956863"/>
<path d="M8.63079 5.46816C5.91069 5.46816 3.69751 7.74247 3.69751 10.5396V16.6853H5.13832V12.8763H19.0887V11.3946H5.13832V10.5396C5.13832 8.53766 6.68397 6.94978 8.63079 6.94978H19.0887V5.46816H8.63079ZM20.9813 2.1376V16.6853H22.4221V10.6785C22.4221 8.59972 24.0641 6.94978 26.0856 6.94978H31.3821C33.4037 6.94978 35.0097 8.59972 35.0097 10.6785V16.6853H36.4505V10.6785C36.4505 7.80453 34.177 5.46816 31.3821 5.46816H26.0856C24.6461 5.46816 23.3456 6.08861 22.4221 7.08251V2.1376H20.9813Z" fill="#A40018"/>
<path d="M6.26793 21.083C6.26792 21.5027 6.15607 21.8378 5.93239 22.0885C5.70871 22.3391 5.41146 22.4644 5.04065 22.4644C4.73275 22.4644 4.4737 22.3757 4.26348 22.1982C4.05327 22.0207 3.91662 21.7785 3.85353 21.4715C3.82987 21.3564 3.81754 21.2341 3.81653 21.1045C3.81673 20.6969 3.92938 20.3683 4.15448 20.1189C4.37959 19.8695 4.67637 19.7448 5.04484 19.7447C5.37836 19.7448 5.64953 19.8443 5.85834 20.0434C6.0469 20.2232 6.17199 20.463 6.2336 20.7628C6.25579 20.8707 6.26723 20.9775 6.26793 21.083ZM5.9163 21.1082C5.91745 21.0002 5.90818 20.8983 5.88848 20.8024C5.84065 20.5697 5.74184 20.3869 5.59203 20.2538C5.44222 20.1207 5.25888 20.0541 5.04202 20.0541C4.77846 20.0541 4.5667 20.1501 4.40674 20.3419C4.24678 20.5338 4.16667 20.788 4.16639 21.1045C4.16523 21.2125 4.17451 21.3144 4.19423 21.4104C4.24154 21.6406 4.3401 21.8222 4.48992 21.9554C4.63974 22.0885 4.82312 22.1551 5.04005 22.1551C5.30354 22.1551 5.51528 22.0591 5.67527 21.8673C5.83527 21.6754 5.91561 21.4224 5.9163 21.1082ZM8.47612 20.4678C8.47547 20.7029 8.36294 20.8816 8.13855 21.0039C8.28147 21.0638 8.38431 21.1274 8.44708 21.1945C8.50985 21.2617 8.55233 21.3492 8.57452 21.4572C8.58585 21.5123 8.59183 21.5698 8.59248 21.6297C8.59084 21.86 8.51232 22.0453 8.35692 22.1856C8.20152 22.3259 7.99553 22.396 7.73895 22.396H6.658L6.66233 19.8131H7.76784C7.95211 19.8131 8.10595 19.8581 8.22938 19.948C8.35281 20.0379 8.43054 20.1608 8.46258 20.3167C8.47243 20.3647 8.47695 20.415 8.47612 20.4678ZM8.13498 20.493C8.13455 20.457 8.13113 20.4234 8.12473 20.3923C8.08628 20.2052 7.91663 20.1116 7.61578 20.1116H7.00009L6.99908 20.9067H7.61125C7.96114 20.9067 8.13571 20.7688 8.13498 20.493ZM8.25515 21.6226C8.25479 21.5866 8.25141 21.553 8.245 21.5218C8.19966 21.3012 8.00675 21.1909 7.66625 21.1909H6.99804L6.9989 22.0974H7.72306C7.89331 22.0974 8.02473 22.0561 8.11733 21.9733C8.20993 21.8906 8.25587 21.7737 8.25515 21.6226ZM10.8639 19.8131L10.8611 20.1225H9.3707L9.37247 20.914H10.7473L10.7444 21.2233H9.36966L9.36859 22.0867H10.8834L10.884 22.396H9.0299L9.03434 19.8131H10.8639ZM13.3555 20.5146C13.3561 20.6873 13.3131 20.83 13.2266 20.9427C13.1825 21.0002 13.1088 21.0614 13.0055 21.1262C13.162 21.1957 13.2548 21.3012 13.2838 21.4427C13.2932 21.4883 13.3001 21.5447 13.3046 21.6118L13.3273 22.0794C13.3288 22.1322 13.3323 22.1718 13.3377 22.1982C13.349 22.2533 13.3867 22.3001 13.4506 22.3385L13.4518 22.396H13.0356C13.0243 22.3529 13.0157 22.3109 13.0097 22.2701C12.9904 22.1311 12.9798 21.9716 12.9779 21.7917C12.9773 21.6981 12.9718 21.6262 12.9615 21.5758C12.9487 21.5135 12.9207 21.4571 12.8777 21.4068C12.8101 21.3276 12.6935 21.288 12.5279 21.288H11.7058L11.7062 22.396H11.3669L11.3712 19.8131H12.5327C12.9991 19.8131 13.2679 19.9858 13.3388 20.3311C13.3507 20.3887 13.3562 20.4499 13.3555 20.5146ZM13.0073 20.5398C13.0068 20.4918 13.0027 20.4486 12.9948 20.4103C12.9539 20.2112 12.8075 20.1116 12.5556 20.1116H11.709L11.7075 20.9895H12.4946C12.8351 20.9895 13.006 20.8396 13.0073 20.5398ZM16.1753 21.083C16.1746 20.9775 16.1632 20.8707 16.141 20.7628C16.0794 20.463 15.9543 20.2232 15.7657 20.0434C15.5569 19.8443 15.2857 19.7448 14.9522 19.7447C14.5838 19.7448 14.287 19.8695 14.0619 20.1189C13.8368 20.3683 13.7241 20.6969 13.7239 21.1045C13.7249 21.2341 13.7373 21.3564 13.7609 21.4715C13.824 21.7785 13.9607 22.0207 14.1709 22.1982C14.3811 22.3757 14.6401 22.4644 14.948 22.4644C15.3189 22.4644 15.6161 22.3391 15.8398 22.0885C16.0635 21.8378 16.1753 21.5027 16.1753 21.083ZM15.8237 21.1082C15.823 21.4224 15.7427 21.6754 15.5827 21.8673C15.4227 22.0591 15.2109 22.1551 14.9474 22.1551C14.7305 22.1551 14.5471 22.0885 14.3973 21.9554C14.2475 21.8222 14.1489 21.6406 14.1016 21.4104C14.0819 21.3144 14.0726 21.2125 14.0738 21.1045C14.0741 20.788 14.1542 20.5338 14.3141 20.3419C14.4741 20.1501 14.6859 20.0541 14.9494 20.0541C15.1663 20.0541 15.3496 20.1207 15.4994 20.2538C15.6492 20.3869 15.748 20.5697 15.7959 20.8024C15.8156 20.8983 15.8248 21.0002 15.8237 21.1082ZM15.3452 19.1548H15.0269L15.0253 19.5217H15.3437L15.3452 19.1548ZM14.7785 19.1548H14.4602L14.4586 19.5217H14.777L14.7785 19.1548ZM18.4077 20.5686H18.0894C18.0871 20.535 18.083 20.5038 18.0771 20.475C18.018 20.1873 17.8112 20.0434 17.4567 20.0434C17.2794 20.0434 17.1412 20.0829 17.042 20.162C16.9428 20.2412 16.8935 20.3503 16.8942 20.4894C16.8936 20.5206 16.896 20.5494 16.9014 20.5757C16.9276 20.7028 17.0239 20.7856 17.1903 20.8239L17.9073 20.993C18.221 21.0674 18.4055 21.2388 18.4607 21.5074C18.4721 21.5626 18.4774 21.6226 18.4767 21.6874C18.4757 21.932 18.3872 22.1226 18.2113 22.2594C18.0353 22.3961 17.7887 22.4644 17.4715 22.4644C17.124 22.4644 16.8626 22.3673 16.6875 22.173C16.6365 22.1178 16.5948 22.0567 16.5622 21.9895C16.5103 21.884 16.4821 21.7413 16.4778 21.5615H16.7961C16.7995 21.6118 16.8056 21.6586 16.8145 21.7018C16.8781 22.0111 17.1093 22.1658 17.5081 22.1658C17.9349 22.1658 18.1485 22.0135 18.1488 21.7089C18.1496 21.6106 18.1226 21.5303 18.0679 21.4679C18.004 21.396 17.8519 21.3312 17.6116 21.2736L17.1001 21.1513C16.8009 21.0794 16.6268 20.9247 16.578 20.6872C16.5682 20.6393 16.5634 20.5877 16.5637 20.5326C16.5624 20.288 16.643 20.0955 16.8054 19.9552C16.9678 19.8149 17.1889 19.7448 17.4688 19.7447C17.6484 19.7448 17.8084 19.7747 17.949 19.8347C18.1229 19.909 18.2466 20.0229 18.3201 20.1764C18.365 20.27 18.3942 20.4007 18.4077 20.5686ZM20.7293 19.8131L20.7264 20.1225H19.8764L19.8749 22.396H19.5355L19.537 20.1225H18.687L18.6898 19.8131H20.7293ZM22.9099 19.8131L22.9071 20.1225H21.4167L21.4185 20.914H22.7934L22.7904 21.2233H21.4157L21.4146 22.0867H22.9294L22.93 22.396H21.0759L21.0804 19.8131H22.9099ZM25.4015 20.5146C25.4021 20.6873 25.3591 20.83 25.2726 20.9427C25.2285 21.0002 25.1548 21.0614 25.0515 21.1262C25.208 21.1957 25.3008 21.3012 25.3299 21.4427C25.3392 21.4883 25.3462 21.5447 25.3507 21.6118L25.3733 22.0794C25.3748 22.1322 25.3783 22.1718 25.3837 22.1982C25.3951 22.2533 25.4327 22.3001 25.4966 22.3385L25.4978 22.396H25.0816C25.0704 22.3529 25.0617 22.3109 25.0557 22.2701C25.0364 22.1311 25.0258 21.9716 25.0239 21.7917C25.0233 21.6981 25.0178 21.6262 25.0075 21.5758C24.9947 21.5135 24.9668 21.4571 24.9237 21.4068C24.8561 21.3276 24.7395 21.288 24.5739 21.288H23.7519L23.7522 22.396H23.4129L23.4172 19.8131H24.5787C25.0452 19.8131 25.3139 19.9858 25.3849 20.3311C25.3967 20.3887 25.4023 20.4499 25.4015 20.5146ZM25.0533 20.5398C25.0529 20.4918 25.0487 20.4486 25.0408 20.4103C24.9999 20.2112 24.8535 20.1116 24.6016 20.1116H23.755L23.7535 20.9895H24.5406C24.8811 20.9895 25.052 20.8396 25.0533 20.5398ZM27.9296 20.5146C27.9302 20.6873 27.8872 20.83 27.8007 20.9427C27.7566 21.0002 27.6829 21.0614 27.5796 21.1262C27.7361 21.1957 27.8289 21.3012 27.858 21.4427C27.8673 21.4883 27.8743 21.5447 27.8787 21.6118L27.9014 22.0794C27.9029 22.1322 27.9064 22.1718 27.9118 22.1982C27.9231 22.2533 27.9608 22.3001 28.0247 22.3385L28.0259 22.396H27.6097C27.5984 22.3529 27.5898 22.3109 27.5838 22.2701C27.5645 22.1311 27.5539 21.9716 27.552 21.7917C27.5514 21.6981 27.5459 21.6262 27.5356 21.5758C27.5228 21.5135 27.4948 21.4571 27.4518 21.4068C27.3842 21.3276 27.2676 21.288 27.102 21.288H26.28L26.2803 22.396H25.941L25.9453 19.8131H27.1068C27.5733 19.8131 27.842 19.9858 27.913 20.3311C27.9248 20.3887 27.9303 20.4499 27.9296 20.5146ZM27.5814 20.5398C27.581 20.4918 27.5768 20.4486 27.5689 20.4103C27.528 20.2112 27.3816 20.1116 27.1297 20.1116H26.2831L26.2816 20.9895H27.0687C27.4092 20.9895 27.5801 20.8396 27.5814 20.5398ZM30.296 19.8131L30.2932 20.1225H28.8028L28.8046 20.914H30.1795L30.1766 21.2233H28.8018L28.8007 22.0867H30.3156L30.3162 22.396H28.462L28.4665 19.8131H30.296ZM30.9709 19.8131V22.396H30.6316V19.8131H30.9709ZM33.7289 20.5901H33.4001C33.3564 20.4343 33.3006 20.3216 33.2326 20.2519C33.1052 20.1201 32.9284 20.0541 32.7022 20.0541C32.4433 20.0541 32.2405 20.1483 32.0938 20.3365C31.9471 20.5248 31.8737 20.7832 31.8736 21.1118C31.8727 21.2437 31.8834 21.3636 31.9056 21.4715C31.9992 21.9272 32.2583 22.1551 32.6828 22.1551C32.9252 22.1551 33.1147 22.0615 33.2512 21.8745C33.3188 21.7833 33.3757 21.6405 33.4221 21.4463H33.751C33.7447 21.4727 33.7372 21.5099 33.7284 21.5578C33.6636 21.8097 33.5802 21.9943 33.4784 22.1118C33.2725 22.3469 32.997 22.4644 32.6519 22.4644C32.3673 22.4644 32.1296 22.3805 31.9389 22.2126C31.7481 22.0447 31.6222 21.8121 31.561 21.5147C31.5349 21.3876 31.5222 21.2521 31.523 21.1082C31.5235 20.6908 31.6297 20.3593 31.8415 20.1135C32.0534 19.8677 32.34 19.7448 32.7015 19.7447C32.9861 19.7448 33.2174 19.8179 33.3956 19.9642C33.5738 20.1105 33.6849 20.3191 33.7289 20.5901ZM36.2538 19.8131L36.2494 22.396H35.9101L35.9107 21.1909H34.5989L34.5982 22.396H34.2588L34.2633 19.8131H34.6026L34.5983 20.8816H35.9101L35.9144 19.8131H36.2538Z" fill="#201F1D"/>
<path fill-rule="evenodd" clip-rule="evenodd" d="M3.74265 18.4022L36.4733 18.4299L36.4732 18.6347L3.74248 18.607L3.74265 18.4022Z" fill="#201F1D"/>
</svg>
