<svg width="37" height="23" viewBox="0 0 37 23" fill="none" xmlns="http://www.w3.org/2000/svg">
<path d="M33.4725 0C33.4725 0 28.4761 4.51514 27.3285 4.51514C26.181 4.51514 13.1595 4.51514 13.1595 4.51514C13.1595 4.51514 12.5111 4.56469 12.3614 5.01098C12.2115 5.45692 7.52196 19.1888 7.52196 19.1888H19.296C19.296 19.1888 20.0444 19.0447 20.344 18.6703C20.6432 18.2963 21.2919 17.562 21.4915 15.0742H14.5066L15.8037 11.2572H28.8932L25.283 22.9563H2.13372C2.13372 22.9563 -0.510464 22.5595 0.0882326 20.8246C0.686929 19.0894 6.37448 1.98712 6.37448 1.98712C6.37448 1.98712 6.91418 0.00412878 8.96875 0.00412878C11.0235 0.00412878 33.4725 0 33.4725 0Z" fill="#AF0268"/>
<path d="M27.2838 23L28.2068 19.2814H37L35.9081 23H27.2486" fill="#AF0268"/>
</svg>
