<svg width="25" height="31" viewBox="0 0 25 31" fill="none" xmlns="http://www.w3.org/2000/svg">
<path d="M0 0V21.1467C0 23.0226 0.665766 24.5385 2.04554 25.7702C3.21305 26.8123 4.68931 27.485 5.99189 28.0819H6.00154C6.20417 28.1766 8.28831 29.1146 12.2057 30.8674L12.5048 31L12.6689 30.9242C12.7171 30.9053 18.6607 28.2335 19.0081 28.0819H19.0178C20.3203 27.4945 21.7966 26.8218 22.9641 25.7702C24.3439 24.5385 25.0096 23.0226 25.0096 21.1467V0H0Z" fill="white"/>
<path fill-rule="evenodd" clip-rule="evenodd" d="M5.76997 24.529V11.1702H3.07796V20.7962C3.07796 22.7194 4.22617 23.7142 5.76997 24.529Z" fill="#151616"/>
<path fill-rule="evenodd" clip-rule="evenodd" d="M19.23 24.529C20.7738 23.7048 21.922 22.71 21.922 20.7867V11.1702H19.23V24.529Z" fill="#151616"/>
<path fill-rule="evenodd" clip-rule="evenodd" d="M13.846 26.9734C14.5986 26.6797 15.5635 26.2723 16.538 25.8081V11.1702H13.846V26.9734Z" fill="#151616"/>
<path fill-rule="evenodd" clip-rule="evenodd" d="M8.46198 25.8081C9.43651 26.2723 10.411 26.6797 11.154 26.9734V11.1702H8.46198V25.8081Z" fill="#151616"/>
<path d="M15.1293 9.21852C16.2196 9.21852 16.731 8.46057 16.731 7.66473C16.731 7.12469 16.6152 6.66993 16.1617 6.20568L15.0714 5.08771C14.8012 4.80348 14.724 4.62347 14.724 4.36766C14.724 4.11186 14.917 3.98869 15.1486 3.98869C15.5056 3.98869 15.6214 4.27292 15.6214 4.54768V5.01192H16.6634V4.50031C16.6634 3.48655 16.1038 2.93704 15.1293 2.93704C14.0969 2.93704 13.6048 3.68551 13.6048 4.40556C13.6048 4.9077 13.7592 5.353 14.1644 5.76987L15.3512 6.99205C15.5635 7.20996 15.6021 7.4563 15.6021 7.69315C15.6021 7.99633 15.3898 8.14792 15.1389 8.14792C14.7433 8.14792 14.6179 7.85422 14.6179 7.56999V7.07732H13.5179V7.62683C13.5179 8.65954 14.1065 9.21852 15.1293 9.21852Z" fill="black"/>
<path d="M9.31108 7.53209H10.3531L10.5268 9.1143H11.6268L10.8742 3.02231H8.79969L8.03744 9.1143H9.1374L9.31108 7.53209ZM9.58124 5.17298C9.61984 4.80348 9.66808 4.49083 9.67773 4.32977C9.68738 4.14976 9.99614 4.15923 10.0058 4.33924C10.0154 4.49083 10.0637 4.80348 10.1023 5.17298L10.247 6.50886H9.43651L9.58124 5.17298Z" fill="black"/>
<path d="M5.76997 7.93949H4.28406V3.02231H3.07796V9.1143H5.76997V7.93949Z" fill="black"/>
<path d="M19.9054 8.51742C19.9054 7.90159 19.8668 7.4563 19.8572 6.91626C19.8572 6.77414 20.0695 6.72677 20.1467 6.89731L21.1019 9.1143H22.4045L20.9379 5.94988L22.2212 3.02231H20.9861L20.1563 5.30562C20.1081 5.44774 19.8572 5.46669 19.8572 5.28667C19.8668 4.72769 19.8958 4.2824 19.8958 3.57182V3.02231H18.7862V9.1143H19.8958L19.9054 8.51742Z" fill="black"/>
<path d="M0 0V21.1467C0 23.0226 0.665766 24.5385 2.04554 25.7702C3.21305 26.8123 4.68931 27.485 5.99189 28.0819H6.00154C6.20417 28.1766 8.28831 29.1146 12.2057 30.8674L12.5048 31L12.6689 30.9242C12.7171 30.9053 18.6607 28.2335 19.0081 28.0819H19.0178C20.3203 27.4945 21.7966 26.8218 22.9641 25.7702C24.3439 24.5385 25.0096 23.0226 25.0096 21.1467V0H0ZM24.614 0.378973V21.1467C24.614 25.1164 21.4107 26.566 18.8441 27.7314H18.8344C18.4871 27.8829 12.5048 30.5737 12.5048 30.5737C12.5048 30.5737 6.51293 27.8829 6.17522 27.7314H6.16557C3.58935 26.566 0.385951 25.1164 0.385951 21.1467V0.378973H24.614Z" fill="black"/>
</svg>
