<svg width="32" height="27" viewBox="0 0 32 27" fill="none" xmlns="http://www.w3.org/2000/svg">
<path d="M2.18544 25.1942C1.07207 25.6243 1.0382 24.3898 1.16944 23.6769C3.07318 16.7385 5.12762 9.84106 7.4602 3.03383C7.63715 2.50128 8.13753 1.53269 8.85551 1.72573L23.8661 6.65208C23.6291 6.44041 23.3594 6.26515 23.0703 6.15085L7.69049 0.5188C6.98183 0.296549 6.50812 1.28715 6.35487 1.80574C4.00367 9.44524 1.94414 17.1711 0.0382852 24.9334C-0.0738986 25.6514 0.000185013 26.8782 1.09916 26.4087L23.69 18.1359L2.18544 25.1942Z" fill="#BC1B1C"/>
<path d="M5.91079 18.3742C5.69574 18.5033 5.45655 18.6579 5.21652 18.8259C4.72122 19.1731 4.28307 19.5321 3.99393 19.844L3.73781 20.0981C3.61377 20.2234 3.45714 20.3021 3.30008 20.3021C3.21753 20.3021 3.14345 20.2665 3.14345 20.2267C3.14345 20.209 3.16038 20.1874 3.18451 20.159L3.31702 20.0371L3.54816 19.7971C3.81232 19.521 4.44055 19.03 5.04338 18.6392C5.27701 18.4849 5.51682 18.3402 5.7622 18.2053C6.01832 18.0584 6.39805 17.854 6.56357 17.768C6.86922 17.6211 7.00977 17.5707 7.14185 17.5707C7.19985 17.5707 7.25742 17.5813 7.32388 17.6067C7.38992 17.6279 7.42294 17.6639 7.42294 17.6999C7.42294 17.7358 7.37341 17.7824 7.24091 17.8827C7.07581 18.0013 6.86922 18.1664 6.70412 18.2951C6.54749 18.4314 6.42303 18.5491 6.29095 18.693C6.15887 18.8285 6.06785 18.9512 5.9853 19.0698C5.90275 19.1841 5.86973 19.2526 5.78718 19.4211L5.88624 19.3602L5.93577 19.3208L6.43107 18.9948L6.67914 18.8297L7.58762 18.2849C7.67822 18.235 7.75272 18.1918 7.80225 18.1596L8.17394 17.9522C8.30644 17.8772 8.44657 17.8053 8.57865 17.7371C8.96685 17.5436 9.08242 17.5 9.26445 17.5C9.41347 17.5 9.53708 17.561 9.53708 17.6258C9.53708 17.6681 9.52015 17.6829 9.28901 17.8658L8.99987 18.0881L8.76026 18.2743L8.61209 18.3886C8.4055 18.5427 8.12441 18.8043 7.86025 19.0702C7.47205 19.4639 7.24895 19.7801 7.24895 19.9232V19.9655C7.26589 20.0155 7.28197 20.0481 7.28197 20.0544C7.28197 20.101 7.22398 20.1476 7.12534 20.1764C7.09232 20.1941 7.04279 20.2018 7.0013 20.2018C6.84467 20.2018 6.72867 20.1192 6.72867 20.0155C6.72867 19.6684 7.42295 18.9368 8.63707 18.0119L8.78524 17.9009C8.67771 17.9517 8.6032 17.9907 8.54563 18.0119C8.331 18.1194 8.1079 18.2413 7.85136 18.392C7.47967 18.5994 7.141 18.8153 6.87642 19.005L6.40567 19.3352C6.03398 19.5829 5.81088 19.6794 5.5717 19.6794C5.38967 19.6794 5.27409 19.615 5.27409 19.5185C5.27409 19.3678 5.38966 19.1599 5.61276 18.9021C5.71182 18.7878 5.86888 18.6405 6.02551 18.4898C6.19908 18.3357 6.30661 18.246 6.57077 18.0275C6.24184 18.1926 6.10849 18.2599 5.91079 18.3742ZM8.42202 19.701C8.42202 19.7801 8.56172 19.8407 8.75222 19.8407C9.09089 19.8407 9.61159 19.6756 9.91639 19.4715C9.99894 19.4072 10.073 19.3826 10.1395 19.3826C10.2059 19.3826 10.2716 19.4038 10.2716 19.4402C10.2716 19.4724 10.2462 19.5045 10.1725 19.5439L9.9329 19.6908C9.61878 19.8728 8.99944 20.035 8.61929 20.035C8.27215 20.035 7.96651 19.9059 7.96651 19.759C7.96651 19.5867 8.2476 19.3001 8.62691 19.107C8.94864 18.9351 9.40373 18.8132 9.71742 18.8132C9.92401 18.8132 10.0815 18.8886 10.0815 18.9817C10.0815 19.096 9.91639 19.2539 9.66831 19.3585C9.43717 19.466 9.10655 19.5342 8.82588 19.5342C8.74333 19.5342 8.67771 19.527 8.54478 19.502C8.45504 19.5837 8.42202 19.64 8.42202 19.701ZM8.75222 19.3352C8.85128 19.353 8.92578 19.3606 8.97531 19.3606C9.11586 19.3606 9.37198 19.2963 9.50448 19.2137C9.63656 19.146 9.71107 19.0774 9.71107 19.0452C9.71107 19.0092 9.64503 18.9809 9.55444 18.9809C9.38087 18.9804 9.06591 19.1206 8.75222 19.3352Z" fill="white"/>
<path d="M11.8912 18.7823L12.0153 18.6786L12.1389 18.5821C12.1969 18.5355 12.2299 18.5029 12.2464 18.4847L12.42 18.345C12.4941 18.2807 12.5682 18.2159 12.6262 18.1842L12.9978 17.9014C13.1799 17.7689 13.2375 17.7405 13.3534 17.7405C13.4694 17.7405 13.5681 17.7837 13.5681 17.837C13.5681 17.8692 13.502 17.9412 13.4114 18.0021C13.3534 18.0381 13.2379 18.113 13.0812 18.235L12.9657 18.3137C12.8996 18.356 12.8175 18.425 12.7015 18.5144L12.3214 18.8192L11.9497 19.1273L11.644 19.4L11.5365 19.4931L11.4459 19.5718L11.3468 19.6794C11.3299 19.6972 11.3214 19.7187 11.3214 19.7327C11.3214 19.7615 11.3629 19.7835 11.4285 19.7835C11.5606 19.7835 11.8912 19.6366 12.1059 19.4787L12.2299 19.3856C12.296 19.3424 12.354 19.3136 12.3865 19.3136C12.4611 19.3136 12.5106 19.3496 12.5106 19.3885C12.5106 19.4533 12.354 19.5858 12.1139 19.7255C11.7753 19.916 11.4696 20.0159 11.23 20.0159C11.0564 20.0159 10.9324 19.9516 10.9324 19.8584C10.9324 19.8297 10.9409 19.8153 10.9739 19.7759C10.7013 19.9516 10.4362 20.0341 10.1725 20.0341C9.90877 20.0341 9.71827 19.9482 9.71827 19.8085C9.71827 19.6362 9.91639 19.4106 10.2474 19.1989C10.6521 18.9449 11.0983 18.8052 11.5196 18.8052C11.6021 18.8052 11.6762 18.8124 11.8167 18.8412L11.8912 18.7823ZM11.6106 19.0228C11.528 19.0016 11.4624 18.994 11.4116 18.994C11.205 18.994 10.8748 19.1125 10.6102 19.281C10.3706 19.4351 10.2055 19.618 10.2055 19.7289C10.2055 19.7797 10.28 19.8263 10.3706 19.8263C10.5611 19.8263 10.8583 19.6612 11.2546 19.3208L11.5517 19.0732L11.5687 19.0588L11.6106 19.0228Z" fill="white"/>
<path d="M12.7096 19.9118C12.5275 19.9838 12.3379 20.0261 12.1804 20.0261C11.9899 20.0261 11.8333 19.9473 11.8333 19.8508C11.8333 19.7505 11.9323 19.6214 12.1059 19.4817C12.3705 19.2628 12.7256 19.0804 12.8658 19.0804C12.9483 19.0804 13.0063 19.1091 13.0063 19.1451C13.0063 19.1773 12.9648 19.2129 12.7502 19.3496C12.42 19.5646 12.271 19.6756 12.271 19.7403C12.271 19.7797 12.329 19.8047 12.4035 19.8047C12.544 19.8047 12.9073 19.6328 13.1799 19.4427C13.2459 19.3928 13.3204 19.3606 13.3619 19.3606C13.428 19.3606 13.4855 19.389 13.4855 19.4249C13.4855 19.4461 13.4601 19.4787 13.4275 19.5075L13.254 19.6294C13.1557 19.7001 12.9161 19.8263 12.7096 19.9118ZM13.3209 18.4386C13.3209 18.4026 13.3539 18.3708 13.4614 18.3031C13.618 18.2167 13.734 18.1846 13.8581 18.1846C13.9652 18.1846 14.0562 18.2278 14.0562 18.2819C14.0562 18.3031 14.0308 18.3285 13.9982 18.3539C13.8585 18.4724 13.6765 18.5402 13.5274 18.5402C13.4203 18.5402 13.3369 18.5008 13.3209 18.447V18.4386Z" fill="white"/>
<path d="M13.428 19.701C13.428 19.7801 13.5685 19.8407 13.7582 19.8407C14.0968 19.8407 14.6175 19.6756 14.9223 19.4715C15.0049 19.4072 15.079 19.3826 15.1454 19.3826C15.2115 19.3826 15.2775 19.4038 15.2775 19.4402C15.2775 19.4724 15.2521 19.5045 15.1784 19.5439L14.9388 19.6908C14.6247 19.8728 14.0054 20.035 13.6252 20.035C13.2781 20.035 12.9724 19.9059 12.9724 19.759C12.9724 19.5867 13.2531 19.3001 13.6328 19.107C13.9546 18.9351 14.4092 18.8132 14.7229 18.8132C14.9295 18.8132 15.087 18.8886 15.087 18.9817C15.087 19.096 14.9219 19.2539 14.6743 19.3585C14.4431 19.466 14.1125 19.5342 13.8318 19.5342C13.7493 19.5342 13.6836 19.527 13.5507 19.502C13.4601 19.5837 13.4271 19.6408 13.4271 19.7018L13.428 19.701ZM13.7582 19.3352C13.8572 19.353 13.9317 19.3606 13.9813 19.3606C14.121 19.3606 14.3775 19.2963 14.5096 19.2137C14.6421 19.146 14.7162 19.0774 14.7162 19.0452C14.7162 19.0092 14.6501 18.9809 14.5595 18.9809C14.386 18.9804 14.0723 19.1206 13.7582 19.3352Z" fill="white"/>
<path d="M16.782 18.9656C16.8896 18.9656 16.9971 19.0088 16.9971 19.0516C16.9971 19.0804 16.9145 19.1375 16.782 19.187C16.6415 19.248 16.4518 19.3521 16.3528 19.4347C16.2287 19.5278 16.1623 19.6028 16.1623 19.6497C16.1623 19.6891 16.2283 19.7251 16.2948 19.7251C16.4184 19.7251 16.683 19.6032 16.8896 19.4601L17.0462 19.3526C17.1122 19.306 17.1702 19.2882 17.2452 19.2882C17.3112 19.2882 17.3688 19.3136 17.3688 19.3454C17.3688 19.3598 17.3518 19.3847 17.3193 19.4063L17.2037 19.5067C16.9145 19.7323 16.3773 19.9406 16.0886 19.9406C15.874 19.9406 15.7254 19.858 15.7254 19.7255C15.7254 19.6214 15.8245 19.5033 16.0471 19.3564C15.8482 19.4139 15.7825 19.4461 15.667 19.4927C15.4274 19.593 15.2292 19.7077 15.1378 19.7975L14.9232 20.002C14.8817 20.0485 14.7907 20.0773 14.7085 20.0773C14.601 20.0773 14.5096 20.0341 14.5096 19.9842C14.5096 19.963 14.518 19.9376 14.5511 19.9122L14.6916 19.7365C14.7907 19.6324 14.9727 19.4499 15.1128 19.3386C15.2284 19.2421 15.3609 19.1451 15.5425 19.0338C15.6831 18.944 15.7902 18.9013 15.8896 18.9013C15.9807 18.9013 16.0463 18.9335 16.0463 18.9732C16.0463 19.0088 15.9968 19.0554 15.8981 19.1058C15.7906 19.1595 15.667 19.2421 15.5594 19.328C15.5099 19.3636 15.4854 19.3885 15.4269 19.4465C16.136 19.1091 16.5403 18.9656 16.7803 18.9656H16.782Z" fill="white"/>
<path d="M10.6488 24.7183L10.9087 23.7404L11.7342 24.3301L12 23.4399L12.337 23.3192L11.873 24.7429L11.0585 24.1587L10.7995 25.1264L9.54512 24.3179L9.8821 24.1972L10.6488 24.7183ZM12.9771 23.7193C13.0491 23.911 13.3348 23.9834 13.6714 23.8632C13.9233 23.773 14.0536 23.624 14.1243 23.4589L14.4071 23.4547C14.3072 23.7002 14.0642 23.9076 13.7086 24.0346C13.19 24.2201 12.7722 24.1024 12.6651 23.8031C12.555 23.4949 12.7633 23.1325 13.3077 22.9378C13.8665 22.7375 14.2623 22.9082 14.3436 23.2299L12.9771 23.7193ZM13.9787 23.1909C13.8839 23.0546 13.629 23.0089 13.3704 23.1012C13.1147 23.1926 12.9216 23.3996 12.9386 23.5635L13.9787 23.1909ZM14.8728 22.5373L14.8804 22.5348C14.9545 22.4154 15.0222 22.3239 15.2148 22.2554C15.3148 22.2198 15.4032 22.2105 15.4985 22.2088L15.4155 22.4205C15.3478 22.4175 15.2991 22.4099 15.2208 22.4374C14.8948 22.5542 14.9697 22.8099 15.0176 22.9454L15.2038 23.4661L14.9075 23.5719L14.535 22.5305L14.8313 22.4247L14.8715 22.5373H14.8728ZM15.4951 21.2999L15.7914 21.1941L16.1259 22.1296L16.1331 22.1267C16.2338 21.9658 16.4294 21.8206 16.6656 21.7359C17.1842 21.5497 17.594 21.6911 17.6994 21.9857C17.8035 22.2765 17.5741 22.6503 17.0631 22.8336C16.8218 22.92 16.5826 22.9386 16.4015 22.876L16.3943 22.8785L16.4459 23.0224L16.1496 23.1283L15.4951 21.2999ZM16.2402 22.4958C16.313 22.6999 16.5822 22.8209 16.9526 22.6884C17.3336 22.5517 17.4678 22.296 17.3929 22.0852C17.3184 21.8769 17.0398 21.7867 16.6732 21.9184C16.3286 22.0412 16.1707 22.3007 16.2402 22.4958ZM18.2764 21.8219C18.3492 22.0136 18.6341 22.086 18.9707 21.9658C19.2221 21.8756 19.3525 21.7262 19.4228 21.5611L19.7056 21.5577C19.6057 21.8032 19.3627 22.0107 19.0071 22.1377C18.4885 22.3239 18.0707 22.2054 17.9636 21.9061C17.8535 21.5979 18.0618 21.236 18.6062 21.0408C19.165 20.8406 19.5608 21.0112 19.6425 21.3329L18.2764 21.8219ZM19.2776 21.2927C19.1828 21.1572 18.9283 21.1107 18.6688 21.2038C18.4131 21.2952 18.2201 21.5018 18.237 21.6661L19.2776 21.2927ZM21.8113 21.1009L21.5149 21.2068L21.4633 21.0628L21.4561 21.0654C21.346 21.2347 21.1627 21.3659 20.9184 21.4531C20.4075 21.636 19.9926 21.4921 19.8897 21.2034C19.7839 20.9062 20.0066 20.5387 20.529 20.3516C20.766 20.267 21.0044 20.2564 21.1885 20.3152L21.1962 20.3127L21.1432 20.1645L21.4396 20.0587L21.8113 21.1009ZM20.1878 21.0823C20.2606 21.2864 20.5298 21.4074 20.9002 21.2745C21.2812 21.1378 21.4159 20.8825 21.3405 20.6717C21.266 20.4634 20.987 20.3732 20.6208 20.5045C20.2762 20.6281 20.1179 20.8871 20.1878 21.0823ZM23.911 20.2915C23.9703 20.4575 24.0219 20.6018 23.8941 20.8025C23.7755 20.9845 23.5452 21.1352 23.2862 21.2279C22.801 21.4015 22.376 21.3465 22.2591 21.0556L22.5555 20.9498C22.6283 21.1411 22.9052 21.1797 23.2235 21.0658C23.6828 20.9015 23.7103 20.6636 23.6265 20.4291L23.5821 20.3046L23.5744 20.3076C23.4728 20.4664 23.2663 20.6124 23.0326 20.6971C22.5254 20.8791 22.1118 20.7394 22.0081 20.449C21.9031 20.1569 22.1351 19.778 22.6503 19.5939C22.8908 19.5075 23.1244 19.4965 23.3065 19.5587L23.3141 19.5562L23.2612 19.408L23.5575 19.3022L23.9114 20.2928L23.911 20.2915ZM22.3057 20.3237C22.379 20.5277 22.6478 20.6488 23.0182 20.5163C23.3992 20.38 23.5338 20.1243 23.4585 19.9135C23.3835 19.7052 23.105 19.615 22.7388 19.7463C22.3942 19.869 22.2359 20.1285 22.3057 20.3237ZM24.4817 19.5998C24.5549 19.7916 24.8398 19.8644 25.1768 19.7437C25.4287 19.6535 25.559 19.5045 25.6297 19.339L25.9125 19.3348C25.8126 19.5803 25.5696 19.7877 25.214 19.9147C24.6954 20.1002 24.2776 19.9825 24.1705 19.6832C24.0604 19.375 24.2687 19.013 24.8131 18.8179C25.3719 18.6176 25.7677 18.7883 25.849 19.11L24.4817 19.5998ZM25.4833 19.0715C25.3884 18.9351 25.134 18.8894 24.8745 18.9817C24.6192 19.0732 24.4258 19.2802 24.4427 19.444L25.4833 19.0715ZM26.3964 18.4263L26.404 18.4238C26.4904 18.2807 26.6297 18.1681 26.8443 18.091C27.3256 17.9183 27.5115 18.0868 27.5987 18.3311L27.8201 18.9491L27.5237 19.055L27.3133 18.4678C27.2528 18.2993 27.1766 18.1566 26.8324 18.2798C26.4252 18.4259 26.4802 18.6608 26.5471 18.8471L26.7241 19.3411L26.4277 19.447L26.0552 18.4056L26.3515 18.2997L26.3972 18.4255L26.3964 18.4263ZM28.6951 18.6363L28.3988 18.7421L28.0847 17.8641L27.9026 17.9293L27.8434 17.7651L28.0254 17.6999L27.8912 17.3252L28.1875 17.2194L28.3217 17.594L28.6329 17.4827L28.6921 17.6469L28.381 17.7583L28.6951 18.6363ZM29.3809 17.87C29.4436 18.0453 29.5308 18.1833 29.8902 18.055C30.2496 17.9268 30.2289 17.7638 30.1662 17.5894L29.9588 17.0094L30.2551 16.9036L30.4702 17.5047C30.5692 17.7816 30.4642 18.0368 29.9495 18.221C29.4347 18.4051 29.1917 18.2747 29.0922 17.9979L28.8771 17.3967L29.1735 17.2909L29.3818 17.8709L29.3809 17.87ZM31.1166 16.7207L31.1238 16.7181C31.1983 16.5996 31.2656 16.5073 31.4582 16.4387C31.5581 16.4032 31.647 16.3939 31.7419 16.3922L31.6593 16.6038C31.5916 16.6009 31.5425 16.5933 31.4646 16.6208C31.1386 16.7372 31.2135 16.9933 31.2614 17.1288L31.4476 17.6495L31.1513 17.7553L30.7788 16.7139L31.0751 16.6081L31.1153 16.7207H31.1166Z" fill="white"/>
<path d="M12.3269 13.3374L10.0408 7.89076V13.7921C10.0408 14.118 9.91893 14.3636 9.67593 14.5265C9.43252 14.6899 9.10951 14.7721 8.7065 14.7721C8.31703 14.7721 7.99868 14.6916 7.75187 14.5299C7.50507 14.3682 7.38188 14.1227 7.38188 13.7921V7.02334C7.38188 6.64996 7.54402 6.39808 7.86872 6.26769C8.19299 6.1373 8.63072 6.07211 9.18275 6.07211H10.0785C10.617 6.07211 11.0082 6.10174 11.2512 6.15974C11.4942 6.21774 11.6745 6.32315 11.7913 6.4747C11.9082 6.62626 12.0411 6.87348 12.1905 7.21554L14.2628 11.9002L16.3358 7.21554C16.4849 6.87348 16.6182 6.6271 16.735 6.4747C16.8515 6.3223 17.0314 6.21816 17.2752 6.15974C17.5191 6.10132 17.9094 6.07211 18.4479 6.07211H19.3432C19.8944 6.07211 20.3326 6.1373 20.6568 6.26769C20.9811 6.39808 21.1437 6.64996 21.1437 7.02334V13.7912C21.1437 14.118 21.0217 14.3627 20.7783 14.5265C20.5349 14.6904 20.2085 14.7721 19.7996 14.7721C19.4165 14.7721 19.1011 14.6904 18.8547 14.5265C18.6079 14.3636 18.4847 14.1184 18.4847 13.7921V7.89076L16.1987 13.3374C16.0492 13.6913 15.9277 13.9512 15.8338 14.1163C15.7398 14.2814 15.5662 14.4321 15.3131 14.568C15.0603 14.7035 14.7098 14.7725 14.2623 14.7725C13.9254 14.7725 13.64 14.7285 13.4059 14.6413C13.1731 14.5541 12.9911 14.4423 12.8615 14.306C12.7316 14.1705 12.6295 14.0194 12.555 13.8539L12.3269 13.3374Z" fill="white"/>
<path d="M24.7048 15.5002H22.71V8.87628C22.71 8.52238 22.5754 8.25821 22.3057 8.08549C22.039 7.91447 21.6919 7.8281 21.2626 7.82599V13.7925C21.2656 14.1481 21.1212 14.4436 20.8448 14.6264C20.5789 14.8042 20.2335 14.8889 19.8174 14.891V15.5006H8.17563C7.72774 15.5006 7.36452 15.808 7.36452 16.1864C7.36452 16.5653 7.72774 16.8722 8.17563 16.8722H24.7048C25.1526 16.8722 25.5159 16.5653 25.5159 16.1864C25.5159 15.8075 25.1526 15.5002 24.7048 15.5002Z" fill="white"/>
</svg>
