<svg width="40" height="44" viewBox="0 0 40 44" fill="none" xmlns="http://www.w3.org/2000/svg">
<path fill-rule="evenodd" clip-rule="evenodd" d="M39.9999 12.117C39.9999 11.5834 39.8033 11.077 39.4596 10.681C39.2659 10.4285 39.0494 10.2366 38.7652 10.0773C37.006 9.09692 33.4881 7.14383 29.97 5.19058L29.9656 5.18817C26.4479 3.23512 22.9305 1.28233 21.1715 0.302009C21.0122 0.213219 20.8402 0.143866 20.6612 0.0941363C20.4512 0.0333191 20.2343 0.00212371 20.0171 0.000550904C19.5841 -0.00826342 19.1489 0.0886604 18.781 0.293628C15.2621 2.25582 4.67052 8.15915 1.15158 10.1203C0.438946 10.5163 0 11.2496 0 12.0437V31.8834C0 32.6817 0.439999 33.4182 1.15368 33.8173C3.33642 35.0362 8.22776 37.7689 12.4803 40.1447L18.8452 43.7006C19.5589 44.0997 20.4389 44.0997 21.1536 43.7006C23.3365 42.4816 28.2282 39.7487 32.4809 37.3728L38.8452 33.8173C39.5599 33.4182 39.9999 32.6807 39.9999 31.8824V12.117ZM20 7.3335C25.3979 7.3335 30.1217 10.2279 32.6887 14.541L26.2896 18.1801C24.9943 16.0735 22.6608 14.6668 20 14.6668C15.9326 14.6668 12.6316 17.9522 12.6316 22.0002C12.6316 26.0471 15.9337 29.3335 20 29.3335C22.7051 29.3335 25.0719 27.8791 26.3535 25.714L32.811 29.25C30.2736 33.6785 25.4848 36.6668 20 36.6668C11.8663 36.6668 5.26318 30.0951 5.26318 22.0002C5.26318 13.9052 11.8663 7.3335 20 7.3335Z" fill="white"/>
</svg>
