<?xml version="1.0" encoding="UTF-8"?>
<svg id="Ebene_1" xmlns="http://www.w3.org/2000/svg" version="1.1" viewBox="0 0 53.2 54">
  <!-- Generator: Adobe Illustrator 29.4.0, SVG Export Plug-In . SVG Version: 2.1.0 Build 152)  -->
  <defs>
    <style>
      .st0 {
        fill: #0acf83;
      }

      .st1 {
        fill: #ff7262;
      }

      .st2 {
        fill: #1abcfe;
      }

      .st3 {
        fill: #f24e1e;
      }

      .st4 {
        fill: #a259ff;
      }
    </style>
  </defs>
  <path class="st0" d="M17.8,53.6c4.9,0,8.8-4,8.8-8.9v-8.9h-8.8c-4.9,0-8.8,4-8.8,8.9s3.9,8.9,8.8,8.9Z"/>
  <path class="st4" d="M9,27c0-4.9,3.9-8.9,8.8-8.9h8.8v17.7h-8.8c-4.9,0-8.8-4-8.8-8.9Z"/>
  <path class="st3" d="M9,9.2C9,4.3,13,.4,17.8.4h8.8v17.7h-8.8c-4.9,0-8.8-4-8.8-8.9Z"/>
  <path class="st1" d="M26.6.4h8.8c4.9,0,8.8,4,8.8,8.9s-3.9,8.9-8.8,8.9h-8.8V.4Z"/>
  <path class="st2" d="M44.2,27c0,4.9-3.9,8.9-8.8,8.9s-8.8-4-8.8-8.9,3.9-8.9,8.8-8.9,8.8,4,8.8,8.9Z"/>
</svg>