<svg width="36" height="54" viewBox="0 0 36 54" fill="none" xmlns="http://www.w3.org/2000/svg">
<path d="M8.96094 53.5957C13.8136 53.5957 17.7519 49.621 17.7519 44.7237V35.8517H8.96094C4.1083 35.8517 0.169922 39.8264 0.169922 44.7237C0.169922 49.621 4.1083 53.5957 8.96094 53.5957Z" fill="#0ACF83"/>
<path d="M0.169922 26.9797C0.169922 22.0824 4.1083 18.1077 8.96094 18.1077H17.7519V35.8517H8.96094C4.1083 35.8517 0.169922 31.8771 0.169922 26.9797Z" fill="#A259FF"/>
<path d="M0.169922 9.23576C0.169922 4.33842 4.1083 0.36377 8.96094 0.36377H17.7519V18.1077H8.96094C4.1083 18.1077 0.169922 14.1331 0.169922 9.23576Z" fill="#F24E1E"/>
<path d="M17.7519 0.36377H26.543C31.3956 0.36377 35.334 4.33842 35.334 9.23576C35.334 14.1331 31.3956 18.1077 26.543 18.1077H17.7519V0.36377Z" fill="#FF7262"/>
<path d="M35.334 26.9797C35.334 31.8771 31.3956 35.8517 26.543 35.8517C21.6903 35.8517 17.7519 31.8771 17.7519 26.9797C17.7519 22.0824 21.6903 18.1077 26.543 18.1077C31.3956 18.1077 35.334 22.0824 35.334 26.9797Z" fill="#1ABCFE"/>
</svg>
