<svg width="44" height="44" viewBox="0 0 44 44" fill="none" xmlns="http://www.w3.org/2000/svg">
<path d="M43.17 20.0401L23.9594 0.82997C22.8533 -0.276656 21.0591 -0.276656 19.952 0.82997L15.9632 4.81976L21.0232 9.87979C22.1992 9.48234 23.5476 9.74906 24.4847 10.6867C25.4275 11.63 25.6919 12.9899 25.2844 14.1703L30.1618 19.0474C31.3422 18.6404 32.7031 18.9037 33.6454 19.8476C34.9622 21.1644 34.9622 23.2982 33.6454 24.616C32.3276 25.9333 30.1939 25.9333 28.8757 24.616C27.8854 23.6247 27.6403 22.169 28.1426 20.9489L23.5936 16.4003V28.3702C23.9144 28.5291 24.2175 28.7408 24.4847 29.008C25.8015 30.3248 25.8015 32.4586 24.4847 33.7769C23.1679 35.0932 21.0327 35.0932 19.7169 33.7769C18.4001 32.4581 18.4001 30.3244 19.7169 29.008C20.0425 28.6829 20.4193 28.4367 20.8216 28.272V16.1906C20.4193 16.0258 20.0435 15.7821 19.7169 15.4546C18.7195 14.4576 18.4796 12.9933 18.991 11.7684L14.0029 6.77922L0.829952 19.951C-0.27665 21.0586 -0.27665 22.8528 0.829952 23.9595L20.0415 43.17C21.1477 44.2767 22.9414 44.2767 24.049 43.17L43.17 24.0485C44.2766 22.9419 44.2766 21.1467 43.17 20.0401Z" fill="white"/>
</svg>
