<svg width="57" height="54" viewBox="0 0 57 54" fill="none" xmlns="http://www.w3.org/2000/svg">
<path d="M10.0738 0H46.2632C51.75 0 56.1861 4.38136 56.1861 9.8004V44.1595C56.1861 49.5785 51.75 53.9599 46.2632 53.9599H10.0738C4.587 53.9599 0.150879 49.5785 0.150879 44.1595V9.8004C0.150879 4.38136 4.587 0 10.0738 0Z" fill="#330000"/>
<path d="M27.2346 32.2837H18.5491L16.7747 37.7027C16.728 37.9103 16.5412 38.0486 16.3311 38.0256H11.9416C11.6848 38.0256 11.6148 37.8872 11.6848 37.6105L19.2029 16.2341C19.2729 16.0035 19.3429 15.7498 19.4363 15.4731C19.5297 14.9888 19.5764 14.4815 19.5764 13.9742C19.5531 13.8589 19.6465 13.7436 19.7632 13.7206H25.8103C25.9971 13.7206 26.0905 13.7897 26.1139 13.905L34.6359 37.6566C34.7059 37.9103 34.6359 38.0256 34.4024 38.0256H29.5227C29.3592 38.0486 29.1958 37.9333 29.1491 37.7719L27.2346 32.2837ZM19.9033 27.6025H25.8337C25.6936 27.1183 25.5068 26.5418 25.2967 25.9422C25.0866 25.3196 24.8764 24.6509 24.6663 23.9591C24.4328 23.2442 24.2227 22.5524 23.9892 21.8376C23.7557 21.1227 23.5456 20.454 23.3588 19.7853C23.172 19.1396 23.0086 18.5401 22.8451 17.9866H22.7985C22.5883 18.9782 22.3315 19.9698 22.0046 20.9613C21.6544 22.0682 21.3042 23.2212 20.9306 24.3742C20.6037 25.5502 20.2535 26.634 19.9033 27.6025ZM39.8425 17.756C39.072 17.7791 38.3249 17.4793 37.7645 16.9489C37.2275 16.3724 36.9473 15.6115 36.9707 14.8274C36.9473 14.0434 37.2509 13.3055 37.8112 12.7751C38.3716 12.2447 39.1187 11.968 39.8892 11.968C40.7998 11.968 41.5002 12.2447 42.0139 12.7751C42.5275 13.3285 42.8077 14.0665 42.7843 14.8274C42.8077 15.6115 42.5275 16.3724 41.9672 16.9489C41.4302 17.5024 40.6363 17.8021 39.8425 17.756ZM37.2275 37.7719V20.0159C37.2275 19.7853 37.3209 19.693 37.5311 19.693H42.154C42.3641 19.693 42.4575 19.8083 42.4575 20.0159V37.7719C42.4575 38.0256 42.3641 38.1409 42.154 38.1409H37.5777C37.3443 38.1409 37.2275 38.0025 37.2275 37.7719Z" fill="#FF9A00"/>
</svg>
