<svg width="43" height="42" viewBox="0 0 43 42" fill="none" xmlns="http://www.w3.org/2000/svg">
<path fill-rule="evenodd" clip-rule="evenodd" d="M42.8008 0H0.800781V42H42.8008V0ZM15.0579 33.1529L11.8439 35.098C12.7742 37.0712 14.6069 38.7064 17.7643 38.7064C21.2604 38.7064 23.6567 36.8456 23.6567 32.7577V19.2819H19.7099V32.7019C19.7099 34.6752 18.892 35.1825 17.5952 35.1825C16.2421 35.1825 15.678 34.2523 15.0579 33.1529ZM29.0142 32.8145L25.8005 34.675C26.9562 36.959 29.3245 38.7069 32.9894 38.7069C36.7391 38.7069 39.5301 36.7618 39.5301 33.2092C39.5301 29.9108 37.6412 28.4449 34.2862 27.007L33.2995 26.5842C31.608 25.8511 30.875 25.3716 30.875 24.1876C30.875 23.2291 31.608 22.496 32.764 22.496C33.8918 22.496 34.6245 22.9753 35.3013 24.1876L38.3745 22.2139C37.0777 19.9303 35.2734 19.0562 32.7642 19.0562C29.2399 19.0562 26.9846 21.3117 26.9846 24.272C26.9846 27.486 28.8734 29.0085 31.7211 30.2205L32.7076 30.6437C34.512 31.4329 35.5833 31.9122 35.5833 33.2654C35.5833 34.3932 34.5405 35.2109 32.905 35.2109C30.9598 35.2109 29.8603 34.196 29.0142 32.8145Z" fill="white"/>
</svg>
