<svg width="33" height="44" viewBox="0 0 33 44" fill="none" xmlns="http://www.w3.org/2000/svg">
<path d="M16.098 8.15285C14.0649 9.58276 11.7606 11.2035 10.526 13.8848C8.38147 18.5628 14.9141 23.6655 15.1933 23.8805C15.2582 23.9304 15.3359 23.9553 15.4133 23.9553C15.4956 23.9553 15.5779 23.9272 15.6447 23.8712C15.7744 23.7627 15.8112 23.5785 15.7333 23.4284C15.7097 23.3829 13.3648 18.8282 13.452 15.5607C13.4828 14.4226 15.0755 13.1316 16.7616 11.7647C18.3059 10.5128 20.0564 9.09386 21.0806 7.43398C23.3291 3.78025 20.83 0.187547 20.8045 0.151625C20.7053 0.0122339 20.522 -0.0382115 20.3654 0.0304526C20.2089 0.0995465 20.1222 0.268758 20.1579 0.436078C20.163 0.459883 20.649 2.83571 19.2967 5.28347C18.7396 6.29496 17.5155 7.15588 16.098 8.15285Z" fill="white"/>
<path d="M24.6635 9.76403C24.8069 9.656 24.849 9.45895 24.7623 9.30168C24.6754 9.14442 24.4864 9.07506 24.3184 9.13883C23.9731 9.27014 15.8608 12.3972 15.8608 16.1754C15.8608 18.7799 16.9733 20.1558 17.7857 21.1606C18.1044 21.5547 18.3795 21.895 18.4701 22.1855C18.7254 23.0228 18.1207 24.5362 17.8664 25.0487C17.7931 25.196 17.829 25.3746 17.9537 25.4822C18.0211 25.5404 18.1052 25.5699 18.1895 25.5699C18.2611 25.5699 18.3331 25.5486 18.3954 25.5053C18.5348 25.4084 21.8042 23.0968 21.2179 20.3118C20.9994 19.2533 20.4793 18.4798 20.0203 17.7973C19.3092 16.7398 18.7957 15.976 19.5748 14.5653C20.4876 12.9197 24.6216 9.79531 24.6635 9.76403Z" fill="white"/>
<path d="M3.54718 25.6296C3.40813 26.046 3.47379 26.459 3.73685 26.8244C4.61624 28.0453 7.73122 28.7175 12.5083 28.7175C12.5082 28.7175 12.5086 28.7175 12.5083 28.7175C13.1556 28.7175 13.8396 28.7048 14.5395 28.6797C22.1772 28.4063 25.0101 26.0269 25.127 25.9257C25.2543 25.8155 25.2884 25.6319 25.2092 25.4834C25.13 25.335 24.9592 25.2604 24.796 25.3053C22.1061 26.0398 17.0833 26.3005 13.5994 26.3005C9.701 26.3005 7.71567 26.0197 7.22961 25.8123C7.479 25.4698 9.01728 24.8583 10.9235 24.4834C11.1057 24.4476 11.2309 24.2793 11.2128 24.0946C11.1948 23.9098 11.0396 23.7689 10.8539 23.7689C9.73649 23.7689 4.13293 23.8586 3.54718 25.6296Z" fill="white"/>
<path d="M29.1045 23.1788C27.5292 23.1788 26.0353 23.9684 25.9724 24.0018C25.8267 24.0799 25.7528 24.2469 25.7928 24.4075C25.8329 24.5677 25.977 24.6804 26.1423 24.6806C26.1757 24.6806 29.5026 24.7078 29.8039 26.6087C30.0708 28.2485 26.6561 30.9055 25.3178 31.791C25.1733 31.8867 25.1171 32.0715 25.1843 32.2313C25.2414 32.3673 25.3738 32.4524 25.5167 32.4524C25.5416 32.4524 25.5669 32.4498 25.5919 32.4445C25.9096 32.3765 33.3612 30.7344 32.5733 26.3959C32.0927 23.737 30.4216 23.1788 29.1045 23.1788Z" fill="white"/>
<path d="M23.9941 31.2601C24.0201 31.1212 23.9623 30.9798 23.8466 30.8986L22.0599 29.6471C21.9727 29.5861 21.8626 29.5669 21.7604 29.594C21.7417 29.5987 19.8733 30.0899 17.1606 30.3911C16.0839 30.5119 14.8781 30.5756 13.673 30.5756C10.961 30.5756 9.18778 30.257 8.92954 30.0232C8.89533 29.9576 8.90616 29.9278 8.91226 29.9112C8.95919 29.7807 9.21064 29.6257 9.37272 29.5643C9.55173 29.4981 9.64823 29.3037 9.59255 29.1211C9.53703 28.9383 9.34874 28.8308 9.16294 28.8754C7.37063 29.308 6.49424 29.9128 6.558 30.6731C6.67127 32.0211 9.79355 32.713 12.4331 32.8959C12.8127 32.9218 13.2232 32.935 13.653 32.935C13.6528 32.935 13.6533 32.935 13.653 32.935C18.0422 32.935 23.6697 31.5578 23.7259 31.5438C23.8633 31.5103 23.9681 31.3993 23.9941 31.2601Z" fill="white"/>
<path d="M10.5239 34.1531C10.6592 34.0651 10.7192 33.8978 10.6712 33.7437C10.6233 33.5896 10.4792 33.4884 10.3173 33.4906C10.0771 33.4969 7.96699 33.5921 7.81926 34.9356C7.77457 35.3371 7.88956 35.704 8.1612 36.0258C8.91883 36.9237 10.964 37.4573 14.4124 37.6572C14.8203 37.6817 15.2347 37.694 15.6442 37.694C20.0283 37.694 22.981 36.3213 23.1046 36.2629C23.2245 36.2062 23.3036 36.0884 23.3106 35.956C23.3177 35.8237 23.2516 35.6981 23.1385 35.6289L20.8805 34.2505C20.8021 34.2027 20.7084 34.1869 20.619 34.2052C20.6047 34.2082 19.171 34.5056 17.0074 34.7993C16.598 34.855 16.0853 34.8833 15.4837 34.8833C13.3224 34.8833 10.9183 34.5301 10.4573 34.2989C10.4506 34.2557 10.4591 34.2009 10.5239 34.1531Z" fill="white"/>
<path d="M13.601 41.8387C23.6431 41.8301 29.0329 40.0443 30.0712 38.9205C30.4387 38.5229 30.4784 38.1465 30.4472 37.9006C30.3701 37.2956 29.819 36.9253 29.7565 36.885C29.6057 36.7881 29.4034 36.8134 29.2859 36.9491C29.1686 37.0847 29.1658 37.2828 29.2836 37.4184C29.3469 37.4998 29.3835 37.6362 29.1983 37.8216C28.7832 38.2092 24.5968 39.386 17.6263 39.7395C16.6714 39.7891 15.6699 39.8144 14.6498 39.8146C8.40872 39.8146 3.84122 38.9597 3.24163 38.4616C3.47272 38.1295 5.08835 37.599 6.8065 37.2989C7.00012 37.2651 7.13091 37.0827 7.10092 36.8885C7.07093 36.6943 6.89192 36.5607 6.69624 36.5861C6.64777 36.5927 6.48329 36.6025 6.29285 36.6142C3.45794 36.7872 0.181912 37.173 0.0109821 38.6337C-0.0409242 39.0788 0.0913341 39.4828 0.404233 39.8345C1.16985 40.6947 3.3708 41.8387 13.601 41.8387C13.6008 41.8387 13.6012 41.8388 13.601 41.8387Z" fill="white"/>
<path d="M32.0436 39.2371C31.9017 39.1715 31.7339 39.2046 31.628 39.3189C31.6133 39.3348 30.1035 40.9136 25.5639 41.8407C23.826 42.1889 20.5638 42.3655 15.8679 42.3655C11.1633 42.3655 6.68653 42.1804 6.64193 42.1785C6.45493 42.1694 6.295 42.3054 6.26957 42.4894C6.24404 42.6733 6.36264 42.8468 6.54319 42.8897C6.58977 42.9007 11.2814 43.9999 17.6961 43.9999C20.7727 43.9999 23.7666 43.7501 26.5948 43.257C31.868 42.3325 32.2372 39.7178 32.2503 39.6069C32.2687 39.452 32.1853 39.3028 32.0436 39.2371Z" fill="white"/>
</svg>
