<svg width="7" height="20" viewBox="0 0 7 20" fill="none" xmlns="http://www.w3.org/2000/svg">
<path d="M3.48926 19.501C3.84961 19.501 4.40332 18.0332 4.40332 15.6602V7.38086C5.88867 6.97656 6.96973 5.61426 6.96973 4.00586C6.96973 2.07227 5.42285 0.499023 3.48926 0.499023C1.54688 0.499023 0 2.07227 0 4.00586C0 5.60547 1.07227 6.96777 2.55762 7.37207V15.6602C2.55762 18.0156 3.12012 19.501 3.48926 19.501ZM2.4873 4.19922C1.85449 4.19922 1.30078 3.64551 1.30078 2.99512C1.30078 2.35352 1.85449 1.80859 2.4873 1.80859C3.14648 1.80859 3.68262 2.35352 3.68262 2.99512C3.68262 3.64551 3.14648 4.19922 2.4873 4.19922Z" fill="white"/>
</svg>
