<svg width="44" height="44" viewBox="0 0 44 44" fill="none" xmlns="http://www.w3.org/2000/svg">
<path d="M22.3158 19.2087C22.015 19.207 22.015 28.3216 22.015 28.3216C22.015 29.0305 22.4366 30.9152 22.8542 30.9654C22.8542 30.9654 22.5504 19.2087 22.3158 19.2087Z" fill="white"/>
<path fill-rule="evenodd" clip-rule="evenodd" d="M44 22C44 34.1503 34.1503 44 22 44C9.84974 44 0 34.1503 0 22C0 9.84974 9.84974 0 22 0C34.1503 0 44 9.84974 44 22ZM23.4906 11.1427C24.6001 12.2898 26.8065 14.5709 27.8807 19.3119C28.0198 20.1175 28.0923 20.9332 28.0977 21.7508C28.123 26.6518 25.5368 29.7258 24.0982 31.0548L24.0672 31.0827C23.7945 31.3364 23.5059 31.5725 23.2031 31.7896L23.1602 31.8175C22.9124 32.9312 22.726 34.0577 22.6016 35.1918H22.0713C21.9304 33.6617 21.7323 32.2135 21.7106 32.0544C21.7095 32.0467 21.7087 32.0405 21.7087 32.0405V32.0452L21.6318 31.9907C20.955 31.497 15.9509 27.6246 16.2607 21.126C16.5928 14.1582 20.6757 10.7323 21.4715 10.1101C21.9854 9.56184 22.006 9.35215 22.046 8.80859C22.0544 8.82825 22.0621 8.84834 22.0681 8.86421C22.0706 8.87088 22.0729 8.87681 22.0748 8.88164C22.0748 8.88164 22.4666 9.84844 22.8534 10.392C22.9336 10.5669 23.1648 10.8059 23.4906 11.1427Z" fill="white"/>
</svg>
