<svg width="44" height="44" viewBox="0 0 44 44" fill="none" xmlns="http://www.w3.org/2000/svg">
<path d="M40.5287 33.7575C38.1346 33.698 36.2792 33.9365 34.723 34.5918C34.2742 34.7705 33.5559 34.7707 33.496 35.3367C33.7355 35.5752 33.7654 35.9624 33.9749 36.2901C34.3342 36.8857 34.9624 37.6904 35.5311 38.1076C36.1594 38.5842 36.788 39.0608 37.4462 39.478C38.6134 40.1931 39.9302 40.6101 41.0673 41.3252C41.7259 41.742 42.3839 42.2786 43.0423 42.7255C43.3716 42.9636 43.581 43.351 44 43.5V43.4107C43.7905 43.1425 43.7306 42.7552 43.5213 42.4572C43.2222 42.1593 42.9228 41.8911 42.6235 41.5932C41.7556 40.4314 40.6783 39.4183 39.5112 38.5842C38.5537 37.9287 36.4587 37.0349 36.0697 35.9325C36.0697 35.9325 36.0397 35.9028 36.0098 35.8731C36.6682 35.8135 37.4462 35.5751 38.0748 35.3963C39.0923 35.1281 40.0199 35.1877 41.0673 34.9197C41.5461 34.8004 42.025 34.6515 42.5037 34.5025V34.2345C41.9653 33.698 41.5761 32.9831 41.0074 32.4766C39.4813 31.1654 37.8053 29.8846 36.0697 28.8121C35.1419 28.2162 33.9449 27.8288 32.9574 27.3224C32.5984 27.1434 31.9997 27.0542 31.7904 26.7563C31.2516 26.1008 30.9523 25.2369 30.5633 24.4622C29.6958 22.8234 28.8575 21.0063 28.1094 19.2783C27.5709 18.1163 27.2416 16.9543 26.5832 15.8819C23.501 10.8171 20.1492 7.74841 15.002 4.73921C13.8947 4.11363 12.5781 3.84542 11.1715 3.51777C10.4236 3.48787 9.67526 3.42843 8.92712 3.39853C8.44838 3.18994 7.96946 2.62399 7.55042 2.35577C5.845 1.28311 1.4457 -1.04052 0.18879 2.02813C-0.619241 3.96468 1.38582 5.8713 2.07406 6.85462C2.58302 7.53982 3.24124 8.31436 3.60038 9.0891C3.8099 9.59524 3.8696 10.1319 4.07912 10.6681C4.55804 11.9787 5.00674 13.4388 5.63529 14.6604C5.96458 15.286 6.32354 15.9415 6.74257 16.5074C6.98194 16.8351 7.40079 16.9842 7.49071 17.5205C7.07187 18.1163 7.04183 19.0101 6.80227 19.755C5.72503 23.1215 6.14406 27.2926 7.67019 29.7653C8.14893 30.51 9.28625 32.149 10.8124 31.5232C12.159 30.9869 11.8598 29.2887 12.2488 27.7991C12.3387 27.4413 12.2788 27.2032 12.4583 26.9649C12.4585 26.9946 12.4583 27.0245 12.4583 27.0245C12.8773 27.8587 13.2962 28.6631 13.6852 29.4973C14.613 30.957 16.2289 32.4766 17.5755 33.4896C18.294 34.0257 18.8625 34.9494 19.7602 35.2772V35.1877H19.7003C19.5207 34.9195 19.2515 34.8004 19.0121 34.5918C18.4735 34.0556 17.8748 33.4001 17.4559 32.8042C16.1992 31.1357 15.0917 29.2887 14.1042 27.3819C13.6255 26.4584 13.2064 25.4453 12.8174 24.5218C12.6378 24.1641 12.6378 23.628 12.3385 23.4494C11.8896 24.1047 11.2314 24.6708 10.9021 25.4752C10.3338 26.7563 10.2738 28.3353 10.0642 29.9739C9.94466 30.0038 10.0044 29.9739 9.94447 30.0335C8.987 29.795 8.6577 28.8121 8.29855 27.9777C7.40078 25.8625 7.25116 22.466 8.02934 20.0232C8.23885 19.3974 9.13662 17.4311 8.77748 16.8353C8.598 16.2691 7.9993 15.9415 7.67019 15.4946C7.28119 14.9284 6.86216 14.2135 6.59294 13.5878C5.87465 11.9194 5.51551 10.0722 4.73752 8.40371C4.37837 7.62898 3.75001 6.82472 3.24124 6.1098C2.67276 5.30535 2.04421 4.73921 1.59532 3.78579C1.44588 3.45815 1.23617 2.92191 1.47554 2.56436C1.53543 2.32605 1.65502 2.23671 1.89458 2.17709C2.28357 1.84925 3.39086 2.26643 3.77985 2.44511C4.88713 2.89181 5.81475 3.30918 6.74256 3.93476C7.16141 4.23269 7.61029 4.79883 8.14891 4.9478H8.77747C9.73512 5.1562 10.8124 5.00742 11.7101 5.27544C13.2964 5.78177 14.7326 6.52679 16.0195 7.33124C19.9399 9.80401 23.1716 13.3197 25.3564 17.5205C25.7155 18.2055 25.8649 18.8314 26.1942 19.5464C26.8228 21.0063 27.6008 22.4959 28.2291 23.926C28.8575 25.3261 29.456 26.7563 30.3538 27.9183C30.8029 28.5437 32.5982 28.8715 33.4062 29.1994C34.0047 29.4674 34.9326 29.7059 35.4712 30.0335C36.4885 30.6589 37.5061 31.3742 38.4637 32.0594C38.9427 32.4168 40.4388 33.1618 40.5287 33.7575Z" fill="white"/>
<path d="M10.0042 7.86728C9.49544 7.86728 9.13649 7.9271 8.77734 8.01644C8.77734 8.01644 8.77734 8.04634 8.77734 8.07606H8.83723C9.07679 8.55267 9.49544 8.88051 9.7947 9.2975C10.0343 9.77411 10.2436 10.2509 10.4831 10.7277C10.513 10.6978 10.5428 10.6681 10.5428 10.6681C10.9621 10.37 11.1714 9.89336 11.1714 9.17844C10.9917 8.96985 10.9619 8.76126 10.8122 8.55267C10.6328 8.25455 10.2436 8.10578 10.0042 7.86728Z" fill="white"/>
</svg>
