<svg width="57" height="54" viewBox="0 0 57 54" fill="none" xmlns="http://www.w3.org/2000/svg">
<path d="M9.94674 0.0654297H46.2231C51.7231 0.0654297 56.1698 4.4362 56.1698 9.84214V44.1181C56.1698 49.5241 51.7231 53.8949 46.2231 53.8949H9.94674C4.44678 53.8949 0 49.5241 0 44.1181V9.84214C0 4.4362 4.44678 0.0654297 9.94674 0.0654297Z" fill="#001E36"/>
<path d="M12.6382 37.815V14.1439C12.6382 13.9829 12.7084 13.8909 12.8723 13.8909C13.2701 13.8909 13.6446 13.8909 14.1829 13.8678C14.7446 13.8448 15.3297 13.8448 15.9616 13.8218C16.5935 13.7988 17.2722 13.7988 17.9978 13.7758C18.7233 13.7528 19.4254 13.7528 20.1275 13.7528C22.0467 13.7528 23.6381 13.9829 24.9488 14.466C26.119 14.857 27.1956 15.5011 28.0849 16.3523C28.8339 17.0884 29.419 17.9856 29.7934 18.9747C30.1445 19.9409 30.3317 20.9301 30.3317 21.9653C30.3317 23.9436 29.8636 25.5769 28.9275 26.8651C27.9913 28.1533 26.6807 29.1195 25.1594 29.6716C23.5679 30.2467 21.8126 30.4538 19.8935 30.4538C19.3318 30.4538 18.9573 30.4538 18.7233 30.4307C18.4892 30.4077 18.1616 30.4077 17.7169 30.4077V37.792C17.7403 37.9531 17.6233 38.0911 17.4595 38.1141C17.4361 38.1141 17.4126 38.1141 17.3658 38.1141H12.9191C12.7318 38.1141 12.6382 38.0221 12.6382 37.815ZM17.7403 18.3306V26.06C18.068 26.083 18.3722 26.106 18.6531 26.106H19.8935C20.8062 26.106 21.719 25.968 22.585 25.6919C23.3339 25.4849 23.9892 25.0478 24.5041 24.4727C24.9956 23.8976 25.2296 23.1155 25.2296 22.1033C25.253 21.3902 25.0658 20.677 24.6913 20.0559C24.2935 19.4578 23.7318 18.9977 23.053 18.7447C22.1871 18.3996 21.2509 18.2616 20.2914 18.2846C19.6828 18.2846 19.1446 18.2846 18.6999 18.3076C18.2318 18.2846 17.9041 18.3076 17.7403 18.3306Z" fill="#31A8FF"/>
<path d="M44.9359 24.6567C44.2337 24.2887 43.4848 24.0356 42.6891 23.8746C41.8231 23.6906 40.9572 23.5755 40.0678 23.5755C39.5997 23.5525 39.1082 23.6216 38.6636 23.7366C38.3593 23.8056 38.1019 23.9666 37.938 24.1967C37.821 24.3807 37.7508 24.6107 37.7508 24.8178C37.7508 25.0248 37.8444 25.2318 37.9849 25.4159C38.1955 25.6689 38.4763 25.876 38.7806 26.037C39.3189 26.313 39.8806 26.5661 40.4423 26.7961C41.7061 27.2102 42.9231 27.7853 44.0465 28.4754C44.8189 28.9585 45.4508 29.6026 45.8954 30.3847C46.2699 31.1209 46.4571 31.926 46.4337 32.7542C46.4571 33.8353 46.1295 34.9165 45.521 35.8137C44.8657 36.7339 43.9529 37.447 42.8997 37.8611C41.7529 38.3441 40.3487 38.5972 38.6636 38.5972C37.587 38.5972 36.5338 38.5052 35.4806 38.2981C34.6615 38.1601 33.8423 37.9071 33.0934 37.562C32.9296 37.47 32.8125 37.309 32.836 37.1249V33.1222C32.836 33.0532 32.8594 32.9612 32.9296 32.9152C32.9998 32.8692 33.07 32.8922 33.1402 32.9382C34.053 33.4673 35.0125 33.8353 36.0423 34.0654C36.9317 34.2954 37.8678 34.4104 38.804 34.4104C39.6934 34.4104 40.3253 34.2954 40.7465 34.0884C41.121 33.9274 41.3784 33.5363 41.3784 33.1222C41.3784 32.8002 41.1912 32.5011 40.8167 32.2021C40.4423 31.903 39.67 31.5579 38.5232 31.1209C37.3295 30.7068 36.2295 30.1547 35.1998 29.4646C34.4742 28.9585 33.8657 28.2914 33.4211 27.5092C33.0466 26.7731 32.8594 25.968 32.8828 25.1628C32.8828 24.1737 33.1636 23.2305 33.6785 22.3793C34.2636 21.4592 35.1296 20.7231 36.1359 20.263C37.2359 19.7109 38.6168 19.4578 40.2785 19.4578C41.238 19.4578 42.221 19.5268 43.1806 19.6649C43.8827 19.7569 44.5614 19.9409 45.1933 20.194C45.2869 20.217 45.3805 20.309 45.4274 20.401C45.4508 20.493 45.4742 20.585 45.4742 20.677V24.4267C45.4742 24.5187 45.4274 24.6107 45.3571 24.6567C45.1465 24.7027 45.0295 24.7027 44.9359 24.6567Z" fill="#31A8FF"/>
</svg>
