<svg width="56" height="54" viewBox="0 0 56 54" fill="none" xmlns="http://www.w3.org/2000/svg">
<path d="M9.96628 0.257324H45.6336C51.0413 0.257324 55.4134 4.5969 55.4134 9.96428V43.9957C55.4134 49.3631 51.0413 53.7027 45.6336 53.7027H9.96628C4.55865 53.7027 0.186523 49.3631 0.186523 43.9957V9.96428C0.186523 4.5969 4.55865 0.257324 9.96628 0.257324Z" fill="#00005B"/>
<path d="M13.3029 37.7147V14.1897C13.3029 14.0298 13.3719 13.9384 13.533 13.9384C13.9242 13.9384 14.2924 13.9384 14.8216 13.9156C15.3739 13.8927 15.9492 13.8927 16.5705 13.8699C17.1918 13.8471 17.8591 13.8471 18.5725 13.8242C19.2858 13.8014 19.9762 13.8014 20.6665 13.8014C22.5534 13.8014 24.1182 14.0298 25.4068 14.5094C26.5574 14.8977 27.6159 15.5372 28.4903 16.3823C29.2266 17.1132 29.8019 18.0039 30.1701 18.986C30.5153 19.9453 30.6994 20.9274 30.6994 21.9552C30.6994 23.9195 30.2391 25.5411 29.3187 26.8201C28.3982 28.0992 27.1096 29.0584 25.6139 29.6066C24.0491 30.1776 22.3233 30.3831 20.4364 30.3831C19.8841 30.3831 19.5159 30.3831 19.2858 30.3603C19.0557 30.3375 18.7335 30.3375 18.2963 30.3375V37.6691C18.3193 37.8289 18.2043 37.966 18.0432 37.9888H13.579C13.3949 37.9888 13.3029 37.8975 13.3029 37.6919V37.7147ZM18.3193 18.3694V26.0436C18.6415 26.0664 18.9406 26.0892 19.2168 26.0892H20.4364C21.3338 26.0892 22.2312 25.9522 23.0827 25.6781C23.819 25.4726 24.4633 25.0386 24.9696 24.4676C25.4528 23.8966 25.6829 23.1201 25.6829 22.1151C25.7059 21.4071 25.5218 20.699 25.1537 20.0824C24.7625 19.4885 24.2102 19.0317 23.5429 18.7805C22.6915 18.4379 21.771 18.3008 20.8276 18.3237C20.2293 18.3237 19.7 18.3237 19.2628 18.3465C18.8026 18.3237 18.4804 18.3465 18.3193 18.3694Z" fill="#9999FF"/>
<path d="M34.013 19.7169H38.0399C38.2701 19.7169 38.4541 19.8768 38.5232 20.0824C38.5922 20.2651 38.6382 20.4478 38.6612 20.6533C38.7073 20.8817 38.7533 21.133 38.7763 21.3614C38.7993 21.6126 38.8223 21.8867 38.8223 22.1836C39.5127 21.3842 40.3411 20.7219 41.2845 20.2194C42.343 19.6256 43.5626 19.3286 44.7822 19.3286C44.9433 19.3058 45.0814 19.42 45.1044 19.5799V24.125C45.1044 24.3077 44.9893 24.3763 44.7362 24.3763C43.9078 24.3534 43.0564 24.4219 42.251 24.6047C41.5837 24.7417 40.9393 24.9472 40.318 25.2213C39.8808 25.4269 39.4666 25.701 39.1445 26.0664V37.7148C39.1445 37.9432 39.0524 38.0345 38.8453 38.0345H34.3121C34.128 38.0573 33.967 37.9431 33.9439 37.7604V25.0158C33.9439 24.4676 33.9439 23.8966 33.9209 23.3028C33.8979 22.7089 33.8979 22.1151 33.8749 21.5213C33.8749 20.9959 33.8289 20.4935 33.7829 19.9682C33.7599 19.854 33.8289 19.7398 33.9439 19.7169C33.9439 19.6941 33.99 19.6941 34.013 19.7169Z" fill="#9999FF"/>
</svg>
