<svg width="45" height="44" viewBox="0 0 45 44" fill="none" xmlns="http://www.w3.org/2000/svg">
<path fill-rule="evenodd" clip-rule="evenodd" d="M22.8008 0C28.8759 0 33.8008 2.46243 33.8008 5.5V11H33.851C33.851 13.7377 33.6789 15.749 33.2914 17.2331C32.9069 18.7058 32.3199 19.623 31.5096 20.2232C30.6864 20.833 29.5704 21.1629 28.0318 21.3311C26.4923 21.4993 24.5983 21.5 22.251 21.5H22.2233C20.1832 21.5 18.4396 21.5 16.9916 21.6755C15.5332 21.8523 14.309 22.2133 13.3449 22.9846C12.3734 23.7617 11.7281 24.9048 11.3245 26.5194C10.9229 28.1259 10.751 30.2368 10.751 33H6.30078C3.26322 33 0.800781 28.0751 0.800781 22C0.800781 15.9249 3.26322 11 6.30078 11H11.8008V10.9502H22.8008V9.9502H11.8008V5.5C11.8008 2.46243 16.7256 0 22.8008 0ZM16.7508 7.53484C17.8747 7.53484 18.7858 6.62374 18.7858 5.49984C18.7858 4.37594 17.8747 3.46484 16.7508 3.46484C15.6269 3.46484 14.7158 4.37594 14.7158 5.49984C14.7158 6.62374 15.6269 7.53484 16.7508 7.53484Z" fill="white"/>
<path fill-rule="evenodd" clip-rule="evenodd" d="M11.751 33H11.8008V38.5C11.8008 41.5376 16.7256 44 22.8008 44C28.8759 44 33.8008 41.5376 33.8008 38.5V34.0502H22.8008V33.0502H33.8008V33H39.3008C42.3383 33 44.8008 28.0751 44.8008 22C44.8008 15.9249 42.3383 11 39.3008 11H34.851C34.851 13.7623 34.6793 15.876 34.259 17.4857C33.8357 19.1067 33.1508 20.252 32.1048 21.0268C31.0718 21.792 29.7471 22.1496 28.1405 22.3252C26.5407 22.5 24.5933 22.5 22.277 22.5H22.251C20.1779 22.5 18.4933 22.5008 17.1119 22.6682C15.7344 22.8352 14.7242 23.1617 13.9696 23.7654C13.2223 24.3633 12.6644 25.2827 12.2946 26.7619C11.9228 28.2491 11.751 30.2632 11.751 33ZM30.8859 38.4998C30.8859 39.6237 29.9748 40.5348 28.8509 40.5348C27.727 40.5348 26.8159 39.6237 26.8159 38.4998C26.8159 37.3759 27.727 36.4648 28.8509 36.4648C29.9748 36.4648 30.8859 37.3759 30.8859 38.4998Z" fill="white"/>
</svg>
