<svg width="44" height="40" viewBox="0 0 44 40" fill="none" xmlns="http://www.w3.org/2000/svg">
<path d="M22 23.8973C24.1659 23.8973 25.9217 22.1525 25.9217 20C25.9217 17.8476 24.1659 16.1027 22 16.1027C19.8341 16.1027 18.0783 17.8476 18.0783 20C18.0783 22.1525 19.8341 23.8973 22 23.8973Z" fill="white"/>
<path fill-rule="evenodd" clip-rule="evenodd" d="M17.9986 13.1126C17.2688 14.1766 16.5557 15.3026 15.87 16.4829C15.1843 17.6632 14.5595 18.8399 13.9973 20C14.5595 21.1601 15.1843 22.3368 15.87 23.5171C16.5557 24.6974 17.2688 25.8234 17.9986 26.8874C19.2908 26.9836 20.6286 27.0342 22 27.0342C23.3714 27.0342 24.7092 26.9836 26.0014 26.8874C26.7312 25.8234 27.4443 24.6974 28.13 23.5171C28.8157 22.3368 29.4405 21.1601 30.0027 20C29.4405 18.8399 28.8157 17.6632 28.13 16.4829C27.4443 15.3026 26.7312 14.1766 26.0014 13.1126C24.7092 13.0164 23.3714 12.9658 22 12.9658C20.6286 12.9658 19.2908 13.0164 17.9986 13.1126ZM15.5447 13.3558C15.091 14.0606 14.6464 14.7868 14.2133 15.5323C13.7802 16.2778 13.3696 17.0236 12.9823 17.7665C12.4381 16.483 11.9755 15.2316 11.5967 14.031C12.8323 13.7567 14.1542 13.5292 15.5447 13.3558ZM19.4375 11.1223C20.2786 11.0842 21.1338 11.0647 22 11.0647C22.8662 11.0647 23.7214 11.0842 24.5624 11.1223C23.7161 10.0122 22.8569 8.98831 22 8.06207C21.1431 8.98831 20.2839 10.0122 19.4375 11.1223ZM20.6653 6.69597C19.4056 8.05007 18.151 9.59383 16.9414 11.2927C14.856 11.4844 12.8834 11.7922 11.0735 12.1993C10.8673 11.3889 10.7039 10.609 10.5842 9.86642C10.2726 7.93354 10.2653 6.30445 10.532 5.0653C10.7987 3.82602 11.3118 3.08234 11.9565 2.71245C12.6012 2.34255 13.5058 2.27278 14.7192 2.66287C15.9324 3.05291 17.3484 3.87374 18.877 5.10837C19.4643 5.58272 20.0622 6.11328 20.6653 6.69597ZM23.3347 6.69597C24.5944 8.05007 25.849 9.59383 27.0586 11.2927C29.144 11.4844 31.1166 11.7922 32.9265 12.1993C33.1327 11.3889 33.2961 10.609 33.4158 9.86642C33.7274 7.93354 33.7347 6.30445 33.468 5.0653C33.2013 3.82602 32.6882 3.08234 32.0435 2.71245C31.3988 2.34255 30.4942 2.27278 29.2808 2.66286C28.0676 3.0529 26.6516 3.87374 25.123 5.10837C24.5357 5.58272 23.9378 6.11328 23.3347 6.69597ZM34.7807 12.667C35.0006 11.8031 35.1757 10.9675 35.3048 10.1672C35.638 8.10016 35.6722 6.2167 35.3387 4.66766C35.0054 3.11875 34.2768 1.79859 33 1.06601C31.7232 0.333439 30.2085 0.366485 28.692 0.854026C27.1754 1.34161 25.5511 2.31274 23.9164 3.63304C23.2835 4.14425 22.6429 4.71275 22 5.33396C21.3571 4.71275 20.7165 4.14425 20.0836 3.63304C18.4489 2.31274 16.8246 1.34161 15.308 0.854027C13.7915 0.366486 12.2768 0.33344 11 1.06601C9.7232 1.79859 8.99463 3.11875 8.66125 4.66766C8.32785 6.2167 8.36201 8.10017 8.69525 10.1672C8.82428 10.9675 8.99941 11.8031 9.21929 12.667C8.35648 12.9097 7.54077 13.1768 6.77882 13.4659C4.81091 14.2126 3.15249 15.1249 1.96928 16.1864C0.786169 17.2477 0 18.5348 0 20C0 21.4651 0.786169 22.7523 1.96928 23.8136C3.15249 24.8751 4.81091 25.7874 6.77882 26.5341C7.54077 26.8232 8.35648 27.0903 9.21929 27.333C8.99941 28.1969 8.82428 29.0325 8.69525 29.8328C8.36201 31.8998 8.32785 33.7833 8.66125 35.3323C8.99463 36.8812 9.7232 38.2014 11 38.934C12.2768 39.6666 13.7915 39.6335 15.308 39.146C16.8246 38.6584 18.4489 37.6873 20.0836 36.367C20.7165 35.8558 21.3571 35.2872 22 34.666C22.6429 35.2872 23.2835 35.8558 23.9164 36.367C25.5511 37.6873 27.1754 38.6584 28.692 39.146C30.2085 39.6335 31.7232 39.6666 33 38.934C34.2768 38.2014 35.0054 36.8812 35.3387 35.3323C35.6722 33.7833 35.638 31.8998 35.3048 29.8328C35.1757 29.0325 35.0006 28.1969 34.7807 27.333C35.6435 27.0903 36.4592 26.8232 37.2212 26.5341C39.1891 25.7874 40.8475 24.8751 42.0307 23.8136C43.2138 22.7523 44 21.4651 44 20C44 18.5348 43.2138 17.2477 42.0307 16.1864C40.8475 15.1249 39.1891 14.2126 37.2212 13.4659C36.4592 13.1768 35.6435 12.9097 34.7807 12.667ZM32.4033 14.031C31.1677 13.7567 29.8458 13.5292 28.4553 13.3558C28.909 14.0606 29.3536 14.7868 29.7867 15.5323C30.2198 16.2778 30.6304 17.0236 31.0177 17.7665C31.5619 16.483 32.0245 15.2316 32.4033 14.031ZM32.1172 20C32.9929 18.1095 33.7109 16.2578 34.2611 14.4966C35.0704 14.7244 35.8318 14.9737 36.5388 15.2419C38.379 15.9402 39.8023 16.7484 40.7488 17.5976C41.6954 18.4468 42.087 19.2602 42.087 20C42.087 20.7398 41.6954 21.5532 40.7488 22.4024C39.8023 23.2515 38.379 24.0598 36.5388 24.758C35.8318 25.0263 35.0704 25.2756 34.2611 25.5034C33.7109 23.7422 32.9929 21.8905 32.1172 20ZM31.0177 22.2335C30.6304 22.9764 30.2198 23.7222 29.7867 24.4677C29.3536 25.2132 28.909 25.9394 28.4553 26.6442C29.8458 26.4708 31.1677 26.2433 32.4033 25.969C32.0245 24.7684 31.5619 23.517 31.0177 22.2335ZM32.9265 27.8007C31.1166 28.2078 29.144 28.5156 27.0586 28.7073C25.849 30.4062 24.5944 31.9499 23.3347 33.304C23.9378 33.8867 24.5357 34.4173 25.123 34.8916C26.6516 36.1263 28.0676 36.9471 29.2808 37.3371C30.4942 37.7272 31.3988 37.6574 32.0435 37.2876C32.6882 36.9177 33.2013 36.174 33.468 34.9347C33.7347 33.6955 33.7274 32.0665 33.4158 30.1336C33.2961 29.391 33.1327 28.6111 32.9265 27.8007ZM22 31.9379C22.8569 31.0117 23.7161 29.9878 24.5624 28.8777C23.7214 28.9158 22.8662 28.9353 22 28.9353C21.1338 28.9353 20.2786 28.9158 19.4376 28.8777C20.2839 29.9878 21.1431 31.0117 22 31.9379ZM15.5447 26.6442C15.091 25.9394 14.6464 25.2132 14.2133 24.4677C13.7802 23.7222 13.3696 22.9764 12.9823 22.2335C12.4381 23.517 11.9755 24.7684 11.5967 25.969C12.8323 26.2433 14.1542 26.4708 15.5447 26.6442ZM11.0735 27.8007C12.8834 28.2078 14.856 28.5156 16.9414 28.7073C18.151 30.4062 19.4056 31.9499 20.6653 33.304C20.0622 33.8867 19.4643 34.4173 18.877 34.8916C17.3484 36.1263 15.9324 36.9471 14.7192 37.3371C13.5058 37.7272 12.6012 37.6574 11.9565 37.2876C11.3118 36.9177 10.7987 36.174 10.532 34.9347C10.2653 33.6955 10.2726 32.0665 10.5842 30.1336C10.7039 29.391 10.8673 28.6111 11.0735 27.8007ZM9.73889 25.5034C8.92955 25.2756 8.16823 25.0263 7.46121 24.758C5.621 24.0598 4.19767 23.2515 3.25117 22.4024C2.30456 21.5532 1.91304 20.7398 1.91304 20C1.91304 19.2602 2.30456 18.4468 3.25117 17.5976C4.19767 16.7484 5.621 15.9402 7.46121 15.2419C8.16823 14.9737 8.92955 14.7244 9.73889 14.4966C10.2891 16.2578 11.0071 18.1095 11.8828 20C11.0071 21.8905 10.2891 23.7422 9.73889 25.5034Z" fill="white"/>
</svg>
