<svg width="55" height="54" viewBox="0 0 55 54" fill="none" xmlns="http://www.w3.org/2000/svg">
<path d="M52.2479 5.89468L41.1659 0.558908C39.8831 -0.0587067 38.3502 0.201816 37.3435 1.20851L1.06511 34.2859C0.0893126 35.1755 0.0904345 36.7118 1.06753 37.6001L4.03086 40.294C4.82967 41.0202 6.03271 41.0737 6.89277 40.4212L50.5803 7.27893C52.046 6.16704 54.1511 7.2124 54.1511 9.0521V8.92344C54.1511 7.63208 53.4114 6.4549 52.2479 5.89468Z" fill="#0065A9"/>
<path d="M52.2479 48.0657L41.1659 53.4015C39.8831 54.0192 38.3502 53.7585 37.3435 52.7519L1.06511 19.6745C0.0893126 18.7848 0.0904344 17.2485 1.06753 16.3603L4.03086 13.6663C4.82967 12.9401 6.03271 12.8867 6.89277 13.5391L50.5803 46.6814C52.046 47.7933 54.1511 46.7479 54.1511 44.9083V45.037C54.1511 46.3283 53.4114 47.5054 52.2479 48.0657Z" fill="#007ACC"/>
<path d="M41.1664 53.4024C39.8832 54.0197 38.3503 53.7586 37.3435 52.7519C38.584 53.9923 40.705 53.1137 40.705 51.3594V2.60077C40.705 0.846464 38.584 -0.0319721 37.3435 1.20851C38.3503 0.201726 39.8832 -0.059296 41.1664 0.557772L52.2465 5.88623C53.4107 6.44613 54.1511 7.62374 54.1511 8.91564V45.0448C54.1511 46.3367 53.4107 47.5143 52.2464 48.0742L41.1664 53.4024Z" fill="#1F9CF0"/>
</svg>
